<?xml version="1.0" encoding="utf-8" standalone="no"?>
<!DOCTYPE svg PUBLIC "-//W3C//DTD SVG 1.1//EN"
  "http://www.w3.org/Graphics/SVG/1.1/DTD/svg11.dtd">
<svg xmlns:xlink="http://www.w3.org/1999/xlink" width="784.082539pt" height="438.792539pt" viewBox="0 0 784.082539 438.792539" xmlns="http://www.w3.org/2000/svg" version="1.1">
 <metadata>
  <rdf:RDF xmlns:dc="http://purl.org/dc/elements/1.1/" xmlns:cc="http://creativecommons.org/ns#" xmlns:rdf="http://www.w3.org/1999/02/22-rdf-syntax-ns#">
   <cc:Work>
    <dc:type rdf:resource="http://purl.org/dc/dcmitype/StillImage"/>
    <dc:date>2026-08-14T02:18:05.522545</dc:date>
    <dc:format>image/svg+xml</dc:format>
    <dc:creator>
     <cc:Agent>
      <dc:title>Matplotlib v3.11.1, https://matplotlib.org/</dc:title>
     </cc:Agent>
    </dc:creator>
   </cc:Work>
  </rdf:RDF>
 </metadata>
 <defs>
  <style type="text/css">*{stroke-linejoin: round; stroke-linecap: butt}</style>
 </defs>
 <g id="figure_1">
  <g id="patch_1">
   <path d="M 0 438.792539 
L 784.082539 438.792539 
L 784.082539 0 
L 0 0 
z
" style="fill: #ffffff"/>
  </g>
  <g id="axes_1">
   <g id="patch_2">
    <path d="M 46.282539 396.940664 
L 776.882539 396.940664 
L 776.882539 7.2 
L 46.282539 7.2 
z
" style="fill: #ffffff"/>
   </g>
   <g id="matplotlib.axis_1">
    <g id="xtick_1">
     <g id="line2d_1">
      <defs>
       <path id="mfa50bde962" d="M 0 0 
L 0 3.5 
" style="stroke: #000000; stroke-width: 0.8"/>
      </defs>
      <g>
       <use xlink:href="#mfa50bde962" x="79.49163" y="396.940664" style="stroke: #000000; stroke-width: 0.8"/>
      </g>
     </g>
     <g id="text_1">
      <text style="font-size: 13px; font-family: 'Times New Roman'; text-anchor: middle" x="79.49163" y="412.954336" transform="rotate(-0 79.49163 412.954336)">250</text>
     </g>
    </g>
    <g id="xtick_2">
     <g id="line2d_2">
      <g>
       <use xlink:href="#mfa50bde962" x="190.1886" y="396.940664" style="stroke: #000000; stroke-width: 0.8"/>
      </g>
     </g>
     <g id="text_2">
      <text style="font-size: 13px; font-family: 'Times New Roman'; text-anchor: middle" x="190.1886" y="412.954336" transform="rotate(-0 190.1886 412.954336)">300</text>
     </g>
    </g>
    <g id="xtick_3">
     <g id="line2d_3">
      <g>
       <use xlink:href="#mfa50bde962" x="300.885569" y="396.940664" style="stroke: #000000; stroke-width: 0.8"/>
      </g>
     </g>
     <g id="text_3">
      <text style="font-size: 13px; font-family: 'Times New Roman'; text-anchor: middle" x="300.885569" y="412.954336" transform="rotate(-0 300.885569 412.954336)">350</text>
     </g>
    </g>
    <g id="xtick_4">
     <g id="line2d_4">
      <g>
       <use xlink:href="#mfa50bde962" x="411.582539" y="396.940664" style="stroke: #000000; stroke-width: 0.8"/>
      </g>
     </g>
     <g id="text_4">
      <text style="font-size: 13px; font-family: 'Times New Roman'; text-anchor: middle" x="411.582539" y="412.954336" transform="rotate(-0 411.582539 412.954336)">400</text>
     </g>
    </g>
    <g id="xtick_5">
     <g id="line2d_5">
      <g>
       <use xlink:href="#mfa50bde962" x="522.279509" y="396.940664" style="stroke: #000000; stroke-width: 0.8"/>
      </g>
     </g>
     <g id="text_5">
      <text style="font-size: 13px; font-family: 'Times New Roman'; text-anchor: middle" x="522.279509" y="412.954336" transform="rotate(-0 522.279509 412.954336)">450</text>
     </g>
    </g>
    <g id="xtick_6">
     <g id="line2d_6">
      <g>
       <use xlink:href="#mfa50bde962" x="632.976478" y="396.940664" style="stroke: #000000; stroke-width: 0.8"/>
      </g>
     </g>
     <g id="text_6">
      <text style="font-size: 13px; font-family: 'Times New Roman'; text-anchor: middle" x="632.976478" y="412.954336" transform="rotate(-0 632.976478 412.954336)">500</text>
     </g>
    </g>
    <g id="xtick_7">
     <g id="line2d_7">
      <g>
       <use xlink:href="#mfa50bde962" x="743.673448" y="396.940664" style="stroke: #000000; stroke-width: 0.8"/>
      </g>
     </g>
     <g id="text_7">
      <text style="font-size: 13px; font-family: 'Times New Roman'; text-anchor: middle" x="743.673448" y="412.954336" transform="rotate(-0 743.673448 412.954336)">550</text>
     </g>
    </g>
    <g id="text_8">
     <text style="font-size: 13px; font-family: 'Times New Roman'; text-anchor: middle" x="411.582539" y="428.786875" transform="rotate(-0 411.582539 428.786875)">distance (cm)</text>
    </g>
   </g>
   <g id="matplotlib.axis_2">
    <g id="ytick_1">
     <g id="line2d_8">
      <defs>
       <path id="me69b3a437e" d="M 0 0 
L -3.5 0 
" style="stroke: #000000; stroke-width: 0.8"/>
      </defs>
      <g>
       <use xlink:href="#me69b3a437e" x="46.282539" y="379.225179" style="stroke: #000000; stroke-width: 0.8"/>
      </g>
     </g>
     <g id="text_9">
      <text style="font-size: 13px; font-family: 'Times New Roman'; text-anchor: end" x="39.282539" y="383.732015" transform="rotate(-0 39.282539 383.732015)">0.0</text>
     </g>
    </g>
    <g id="ytick_2">
     <g id="line2d_9">
      <g>
       <use xlink:href="#me69b3a437e" x="46.282539" y="293.27404" style="stroke: #000000; stroke-width: 0.8"/>
      </g>
     </g>
     <g id="text_10">
      <text style="font-size: 13px; font-family: 'Times New Roman'; text-anchor: end" x="39.282539" y="297.780876" transform="rotate(-0 39.282539 297.780876)">0.2</text>
     </g>
    </g>
    <g id="ytick_3">
     <g id="line2d_10">
      <g>
       <use xlink:href="#me69b3a437e" x="46.282539" y="207.322902" style="stroke: #000000; stroke-width: 0.8"/>
      </g>
     </g>
     <g id="text_11">
      <text style="font-size: 13px; font-family: 'Times New Roman'; text-anchor: end" x="39.282539" y="211.829738" transform="rotate(-0 39.282539 211.829738)">0.4</text>
     </g>
    </g>
    <g id="ytick_4">
     <g id="line2d_11">
      <g>
       <use xlink:href="#me69b3a437e" x="46.282539" y="121.371763" style="stroke: #000000; stroke-width: 0.8"/>
      </g>
     </g>
     <g id="text_12">
      <text style="font-size: 13px; font-family: 'Times New Roman'; text-anchor: end" x="39.282539" y="125.878599" transform="rotate(-0 39.282539 125.878599)">0.6</text>
     </g>
    </g>
    <g id="ytick_5">
     <g id="line2d_12">
      <g>
       <use xlink:href="#me69b3a437e" x="46.282539" y="35.420624" style="stroke: #000000; stroke-width: 0.8"/>
      </g>
     </g>
     <g id="text_13">
      <text style="font-size: 13px; font-family: 'Times New Roman'; text-anchor: end" x="39.282539" y="39.92746" transform="rotate(-0 39.282539 39.92746)">0.8</text>
     </g>
    </g>
    <g id="text_14">
     <text style="font-size: 13px; font-family: 'Times New Roman'; text-anchor: middle" x="16.226875" y="202.070332" transform="rotate(-90 16.226875 202.070332)">miss rate (fraction of person-detections missed)</text>
    </g>
   </g>
   <g id="line2d_13">
    <path d="M 79.49163 364.89999 
L 134.840115 365.855002 
L 190.1886 379.225179 
L 245.537085 316.433097 
L 300.885569 374.927622 
L 356.234054 326.46073 
L 411.582539 344.605971 
L 466.931024 338.398388 
L 522.279509 270.353737 
L 577.627994 146.679598 
L 632.976478 147.157104 
L 688.324963 113.015402 
L 743.673448 24.915485 
" clip-path="url(#pac55100665)" style="fill: none; stroke-dasharray: 5.92,2.56; stroke-dashoffset: 0; stroke: #555555; stroke-width: 1.6"/>
    <defs>
     <path id="m035da14af1" d="M 0 3.5 
C 0.928211 3.5 1.81853 3.131218 2.474874 2.474874 
C 3.131218 1.81853 3.5 0.928211 3.5 0 
C 3.5 -0.928211 3.131218 -1.81853 2.474874 -2.474874 
C 1.81853 -3.131218 0.928211 -3.5 0 -3.5 
C -0.928211 -3.5 -1.81853 -3.131218 -2.474874 -2.474874 
C -3.131218 -1.81853 -3.5 -0.928211 -3.5 0 
C -3.5 0.928211 -3.131218 1.81853 -2.474874 2.474874 
C -1.81853 3.131218 -0.928211 3.5 0 3.5 
z
" style="stroke: #555555"/>
    </defs>
    <g clip-path="url(#pac55100665)">
     <use xlink:href="#m035da14af1" x="79.49163" y="364.89999" style="fill: #555555; stroke: #555555"/>
     <use xlink:href="#m035da14af1" x="134.840115" y="365.855002" style="fill: #555555; stroke: #555555"/>
     <use xlink:href="#m035da14af1" x="190.1886" y="379.225179" style="fill: #555555; stroke: #555555"/>
     <use xlink:href="#m035da14af1" x="245.537085" y="316.433097" style="fill: #555555; stroke: #555555"/>
     <use xlink:href="#m035da14af1" x="300.885569" y="374.927622" style="fill: #555555; stroke: #555555"/>
     <use xlink:href="#m035da14af1" x="356.234054" y="326.46073" style="fill: #555555; stroke: #555555"/>
     <use xlink:href="#m035da14af1" x="411.582539" y="344.605971" style="fill: #555555; stroke: #555555"/>
     <use xlink:href="#m035da14af1" x="466.931024" y="338.398388" style="fill: #555555; stroke: #555555"/>
     <use xlink:href="#m035da14af1" x="522.279509" y="270.353737" style="fill: #555555; stroke: #555555"/>
     <use xlink:href="#m035da14af1" x="577.627994" y="146.679598" style="fill: #555555; stroke: #555555"/>
     <use xlink:href="#m035da14af1" x="632.976478" y="147.157104" style="fill: #555555; stroke: #555555"/>
     <use xlink:href="#m035da14af1" x="688.324963" y="113.015402" style="fill: #555555; stroke: #555555"/>
     <use xlink:href="#m035da14af1" x="743.673448" y="24.915485" style="fill: #555555; stroke: #555555"/>
    </g>
   </g>
   <g id="line2d_14">
    <path d="M 79.49163 379.225179 
L 134.840115 379.225179 
L 190.1886 379.225179 
L 245.537085 379.225179 
L 300.885569 378.747673 
L 356.234054 379.225179 
L 411.582539 379.225179 
L 466.931024 379.225179 
L 522.279509 299.481623 
L 577.627994 251.492237 
L 632.976478 358.214901 
L 688.324963 350.336047 
L 743.673448 313.806813 
" clip-path="url(#pac55100665)" style="fill: none; stroke: #555555; stroke-width: 1.8; stroke-linecap: square"/>
    <defs>
     <path id="m41bab15d1e" d="M 0 3.5 
C 0.928211 3.5 1.81853 3.131218 2.474874 2.474874 
C 3.131218 1.81853 3.5 0.928211 3.5 0 
C 3.5 -0.928211 3.131218 -1.81853 2.474874 -2.474874 
C 1.81853 -3.131218 0.928211 -3.5 0 -3.5 
C -0.928211 -3.5 -1.81853 -3.131218 -2.474874 -2.474874 
C -3.131218 -1.81853 -3.5 -0.928211 -3.5 0 
C -3.5 0.928211 -3.131218 1.81853 -2.474874 2.474874 
C -1.81853 3.131218 -0.928211 3.5 0 3.5 
z
" style="stroke: #555555"/>
    </defs>
    <g clip-path="url(#pac55100665)">
     <use xlink:href="#m41bab15d1e" x="79.49163" y="379.225179" style="fill: #ffffff; stroke: #555555"/>
     <use xlink:href="#m41bab15d1e" x="134.840115" y="379.225179" style="fill: #ffffff; stroke: #555555"/>
     <use xlink:href="#m41bab15d1e" x="190.1886" y="379.225179" style="fill: #ffffff; stroke: #555555"/>
     <use xlink:href="#m41bab15d1e" x="245.537085" y="379.225179" style="fill: #ffffff; stroke: #555555"/>
     <use xlink:href="#m41bab15d1e" x="300.885569" y="378.747673" style="fill: #ffffff; stroke: #555555"/>
     <use xlink:href="#m41bab15d1e" x="356.234054" y="379.225179" style="fill: #ffffff; stroke: #555555"/>
     <use xlink:href="#m41bab15d1e" x="411.582539" y="379.225179" style="fill: #ffffff; stroke: #555555"/>
     <use xlink:href="#m41bab15d1e" x="466.931024" y="379.225179" style="fill: #ffffff; stroke: #555555"/>
     <use xlink:href="#m41bab15d1e" x="522.279509" y="299.481623" style="fill: #ffffff; stroke: #555555"/>
     <use xlink:href="#m41bab15d1e" x="577.627994" y="251.492237" style="fill: #ffffff; stroke: #555555"/>
     <use xlink:href="#m41bab15d1e" x="632.976478" y="358.214901" style="fill: #ffffff; stroke: #555555"/>
     <use xlink:href="#m41bab15d1e" x="688.324963" y="350.336047" style="fill: #ffffff; stroke: #555555"/>
     <use xlink:href="#m41bab15d1e" x="743.673448" y="313.806813" style="fill: #ffffff; stroke: #555555"/>
    </g>
   </g>
   <g id="line2d_15">
    <path d="M 79.49163 365.616249 
L 134.840115 365.855002 
L 190.1886 379.225179 
L 245.537085 317.38811 
L 300.885569 374.450116 
L 356.234054 327.415743 
L 411.582539 344.605971 
L 466.931024 336.727116 
L 522.279509 268.682465 
L 577.627994 149.305883 
L 632.976478 147.157104 
L 688.324963 113.731662 
L 743.673448 25.154238 
" clip-path="url(#pac55100665)" style="fill: none; stroke-dasharray: 5.92,2.56; stroke-dashoffset: 0; stroke: #e07b39; stroke-width: 1.6"/>
    <defs>
     <path id="me3021dfaca" d="M 0 -3.5 
L -3.5 3.5 
L 3.5 3.5 
z
" style="stroke: #e07b39; stroke-linejoin: miter"/>
    </defs>
    <g clip-path="url(#pac55100665)">
     <use xlink:href="#me3021dfaca" x="79.49163" y="365.616249" style="fill: #e07b39; stroke: #e07b39; stroke-linejoin: miter"/>
     <use xlink:href="#me3021dfaca" x="134.840115" y="365.855002" style="fill: #e07b39; stroke: #e07b39; stroke-linejoin: miter"/>
     <use xlink:href="#me3021dfaca" x="190.1886" y="379.225179" style="fill: #e07b39; stroke: #e07b39; stroke-linejoin: miter"/>
     <use xlink:href="#me3021dfaca" x="245.537085" y="317.38811" style="fill: #e07b39; stroke: #e07b39; stroke-linejoin: miter"/>
     <use xlink:href="#me3021dfaca" x="300.885569" y="374.450116" style="fill: #e07b39; stroke: #e07b39; stroke-linejoin: miter"/>
     <use xlink:href="#me3021dfaca" x="356.234054" y="327.415743" style="fill: #e07b39; stroke: #e07b39; stroke-linejoin: miter"/>
     <use xlink:href="#me3021dfaca" x="411.582539" y="344.605971" style="fill: #e07b39; stroke: #e07b39; stroke-linejoin: miter"/>
     <use xlink:href="#me3021dfaca" x="466.931024" y="336.727116" style="fill: #e07b39; stroke: #e07b39; stroke-linejoin: miter"/>
     <use xlink:href="#me3021dfaca" x="522.279509" y="268.682465" style="fill: #e07b39; stroke: #e07b39; stroke-linejoin: miter"/>
     <use xlink:href="#me3021dfaca" x="577.627994" y="149.305883" style="fill: #e07b39; stroke: #e07b39; stroke-linejoin: miter"/>
     <use xlink:href="#me3021dfaca" x="632.976478" y="147.157104" style="fill: #e07b39; stroke: #e07b39; stroke-linejoin: miter"/>
     <use xlink:href="#me3021dfaca" x="688.324963" y="113.731662" style="fill: #e07b39; stroke: #e07b39; stroke-linejoin: miter"/>
     <use xlink:href="#me3021dfaca" x="743.673448" y="25.154238" style="fill: #e07b39; stroke: #e07b39; stroke-linejoin: miter"/>
    </g>
   </g>
   <g id="line2d_16">
    <path d="M 79.49163 379.225179 
L 134.840115 379.225179 
L 190.1886 379.225179 
L 245.537085 379.225179 
L 300.885569 378.270167 
L 356.234054 379.225179 
L 411.582539 379.225179 
L 466.931024 379.225179 
L 522.279509 296.139078 
L 577.627994 252.44725 
L 632.976478 358.93116 
L 688.324963 350.5748 
L 743.673448 313.568059 
" clip-path="url(#pac55100665)" style="fill: none; stroke: #e07b39; stroke-width: 1.8; stroke-linecap: square"/>
    <defs>
     <path id="m6592f7c4ea" d="M 0 -3.5 
L -3.5 3.5 
L 3.5 3.5 
z
" style="stroke: #e07b39; stroke-linejoin: miter"/>
    </defs>
    <g clip-path="url(#pac55100665)">
     <use xlink:href="#m6592f7c4ea" x="79.49163" y="379.225179" style="fill: #ffffff; stroke: #e07b39; stroke-linejoin: miter"/>
     <use xlink:href="#m6592f7c4ea" x="134.840115" y="379.225179" style="fill: #ffffff; stroke: #e07b39; stroke-linejoin: miter"/>
     <use xlink:href="#m6592f7c4ea" x="190.1886" y="379.225179" style="fill: #ffffff; stroke: #e07b39; stroke-linejoin: miter"/>
     <use xlink:href="#m6592f7c4ea" x="245.537085" y="379.225179" style="fill: #ffffff; stroke: #e07b39; stroke-linejoin: miter"/>
     <use xlink:href="#m6592f7c4ea" x="300.885569" y="378.270167" style="fill: #ffffff; stroke: #e07b39; stroke-linejoin: miter"/>
     <use xlink:href="#m6592f7c4ea" x="356.234054" y="379.225179" style="fill: #ffffff; stroke: #e07b39; stroke-linejoin: miter"/>
     <use xlink:href="#m6592f7c4ea" x="411.582539" y="379.225179" style="fill: #ffffff; stroke: #e07b39; stroke-linejoin: miter"/>
     <use xlink:href="#m6592f7c4ea" x="466.931024" y="379.225179" style="fill: #ffffff; stroke: #e07b39; stroke-linejoin: miter"/>
     <use xlink:href="#m6592f7c4ea" x="522.279509" y="296.139078" style="fill: #ffffff; stroke: #e07b39; stroke-linejoin: miter"/>
     <use xlink:href="#m6592f7c4ea" x="577.627994" y="252.44725" style="fill: #ffffff; stroke: #e07b39; stroke-linejoin: miter"/>
     <use xlink:href="#m6592f7c4ea" x="632.976478" y="358.93116" style="fill: #ffffff; stroke: #e07b39; stroke-linejoin: miter"/>
     <use xlink:href="#m6592f7c4ea" x="688.324963" y="350.5748" style="fill: #ffffff; stroke: #e07b39; stroke-linejoin: miter"/>
     <use xlink:href="#m6592f7c4ea" x="743.673448" y="313.568059" style="fill: #ffffff; stroke: #e07b39; stroke-linejoin: miter"/>
    </g>
   </g>
   <g id="line2d_17">
    <path d="M 79.49163 374.211363 
L 134.840115 370.868819 
L 190.1886 379.225179 
L 245.537085 345.560983 
L 300.885569 375.643882 
L 356.234054 334.339585 
L 411.582539 360.363679 
L 466.931024 344.844724 
L 522.279509 281.575135 
L 577.627994 199.6828 
L 632.976478 153.364687 
L 688.324963 167.21237 
L 743.673448 69.801079 
" clip-path="url(#pac55100665)" style="fill: none; stroke-dasharray: 5.92,2.56; stroke-dashoffset: 0; stroke: #4a9c6d; stroke-width: 1.6"/>
    <defs>
     <path id="m637e83bb4a" d="M -3.5 3.5 
L 3.5 3.5 
L 3.5 -3.5 
L -3.5 -3.5 
z
" style="stroke: #4a9c6d; stroke-linejoin: miter"/>
    </defs>
    <g clip-path="url(#pac55100665)">
     <use xlink:href="#m637e83bb4a" x="79.49163" y="374.211363" style="fill: #4a9c6d; stroke: #4a9c6d; stroke-linejoin: miter"/>
     <use xlink:href="#m637e83bb4a" x="134.840115" y="370.868819" style="fill: #4a9c6d; stroke: #4a9c6d; stroke-linejoin: miter"/>
     <use xlink:href="#m637e83bb4a" x="190.1886" y="379.225179" style="fill: #4a9c6d; stroke: #4a9c6d; stroke-linejoin: miter"/>
     <use xlink:href="#m637e83bb4a" x="245.537085" y="345.560983" style="fill: #4a9c6d; stroke: #4a9c6d; stroke-linejoin: miter"/>
     <use xlink:href="#m637e83bb4a" x="300.885569" y="375.643882" style="fill: #4a9c6d; stroke: #4a9c6d; stroke-linejoin: miter"/>
     <use xlink:href="#m637e83bb4a" x="356.234054" y="334.339585" style="fill: #4a9c6d; stroke: #4a9c6d; stroke-linejoin: miter"/>
     <use xlink:href="#m637e83bb4a" x="411.582539" y="360.363679" style="fill: #4a9c6d; stroke: #4a9c6d; stroke-linejoin: miter"/>
     <use xlink:href="#m637e83bb4a" x="466.931024" y="344.844724" style="fill: #4a9c6d; stroke: #4a9c6d; stroke-linejoin: miter"/>
     <use xlink:href="#m637e83bb4a" x="522.279509" y="281.575135" style="fill: #4a9c6d; stroke: #4a9c6d; stroke-linejoin: miter"/>
     <use xlink:href="#m637e83bb4a" x="577.627994" y="199.6828" style="fill: #4a9c6d; stroke: #4a9c6d; stroke-linejoin: miter"/>
     <use xlink:href="#m637e83bb4a" x="632.976478" y="153.364687" style="fill: #4a9c6d; stroke: #4a9c6d; stroke-linejoin: miter"/>
     <use xlink:href="#m637e83bb4a" x="688.324963" y="167.21237" style="fill: #4a9c6d; stroke: #4a9c6d; stroke-linejoin: miter"/>
     <use xlink:href="#m637e83bb4a" x="743.673448" y="69.801079" style="fill: #4a9c6d; stroke: #4a9c6d; stroke-linejoin: miter"/>
    </g>
   </g>
   <g id="line2d_18">
    <path d="M 79.49163 379.225179 
L 134.840115 379.225179 
L 190.1886 379.225179 
L 245.537085 379.225179 
L 300.885569 378.747673 
L 356.234054 379.225179 
L 411.582539 379.225179 
L 466.931024 379.225179 
L 522.279509 362.751211 
L 577.627994 304.017933 
L 632.976478 378.747673 
L 688.324963 373.495103 
L 743.673448 342.457192 
" clip-path="url(#pac55100665)" style="fill: none; stroke: #4a9c6d; stroke-width: 1.8; stroke-linecap: square"/>
    <defs>
     <path id="m00ee5aefe5" d="M -3.5 3.5 
L 3.5 3.5 
L 3.5 -3.5 
L -3.5 -3.5 
z
" style="stroke: #4a9c6d; stroke-linejoin: miter"/>
    </defs>
    <g clip-path="url(#pac55100665)">
     <use xlink:href="#m00ee5aefe5" x="79.49163" y="379.225179" style="fill: #ffffff; stroke: #4a9c6d; stroke-linejoin: miter"/>
     <use xlink:href="#m00ee5aefe5" x="134.840115" y="379.225179" style="fill: #ffffff; stroke: #4a9c6d; stroke-linejoin: miter"/>
     <use xlink:href="#m00ee5aefe5" x="190.1886" y="379.225179" style="fill: #ffffff; stroke: #4a9c6d; stroke-linejoin: miter"/>
     <use xlink:href="#m00ee5aefe5" x="245.537085" y="379.225179" style="fill: #ffffff; stroke: #4a9c6d; stroke-linejoin: miter"/>
     <use xlink:href="#m00ee5aefe5" x="300.885569" y="378.747673" style="fill: #ffffff; stroke: #4a9c6d; stroke-linejoin: miter"/>
     <use xlink:href="#m00ee5aefe5" x="356.234054" y="379.225179" style="fill: #ffffff; stroke: #4a9c6d; stroke-linejoin: miter"/>
     <use xlink:href="#m00ee5aefe5" x="411.582539" y="379.225179" style="fill: #ffffff; stroke: #4a9c6d; stroke-linejoin: miter"/>
     <use xlink:href="#m00ee5aefe5" x="466.931024" y="379.225179" style="fill: #ffffff; stroke: #4a9c6d; stroke-linejoin: miter"/>
     <use xlink:href="#m00ee5aefe5" x="522.279509" y="362.751211" style="fill: #ffffff; stroke: #4a9c6d; stroke-linejoin: miter"/>
     <use xlink:href="#m00ee5aefe5" x="577.627994" y="304.017933" style="fill: #ffffff; stroke: #4a9c6d; stroke-linejoin: miter"/>
     <use xlink:href="#m00ee5aefe5" x="632.976478" y="378.747673" style="fill: #ffffff; stroke: #4a9c6d; stroke-linejoin: miter"/>
     <use xlink:href="#m00ee5aefe5" x="688.324963" y="373.495103" style="fill: #ffffff; stroke: #4a9c6d; stroke-linejoin: miter"/>
     <use xlink:href="#m00ee5aefe5" x="743.673448" y="342.457192" style="fill: #ffffff; stroke: #4a9c6d; stroke-linejoin: miter"/>
    </g>
   </g>
   <g id="line2d_19">
    <path d="M 411.582539 396.940664 
L 411.582539 7.2 
" clip-path="url(#pac55100665)" style="fill: none; stroke-dasharray: 1,1.65; stroke-dashoffset: 0; stroke: #808080"/>
   </g>
   <g id="patch_3">
    <path d="M 46.282539 396.940664 
L 46.282539 7.2 
" style="fill: none; stroke: #000000; stroke-width: 0.8; stroke-linejoin: miter; stroke-linecap: square"/>
   </g>
   <g id="patch_4">
    <path d="M 776.882539 396.940664 
L 776.882539 7.2 
" style="fill: none; stroke: #000000; stroke-width: 0.8; stroke-linejoin: miter; stroke-linecap: square"/>
   </g>
   <g id="patch_5">
    <path d="M 46.282539 396.940664 
L 776.882539 396.940664 
" style="fill: none; stroke: #000000; stroke-width: 0.8; stroke-linejoin: miter; stroke-linecap: square"/>
   </g>
   <g id="patch_6">
    <path d="M 46.282539 7.2 
L 776.882539 7.2 
" style="fill: none; stroke: #000000; stroke-width: 0.8; stroke-linejoin: miter; stroke-linecap: square"/>
   </g>
   <g id="text_15">
    <text style="font-size: 13px; font-family: 'Times New Roman'; text-anchor: start; fill: #808080" x="422.652236" y="46.174066" transform="rotate(-0 422.652236 46.174066)">real data | simulated -&gt;</text>
   </g>
   <g id="legend_1">
    <g id="patch_7">
     <path d="M 54.682539 67.769531 
L 325.299414 67.769531 
Q 327.699414 67.769531 327.699414 65.369531 
L 327.699414 15.6 
Q 327.699414 13.2 325.299414 13.2 
L 54.682539 13.2 
Q 52.282539 13.2 52.282539 15.6 
L 52.282539 65.369531 
Q 52.282539 67.769531 54.682539 67.769531 
z
" style="fill: #ffffff; opacity: 0.8; stroke: #cccccc; stroke-linejoin: miter"/>
    </g>
    <g id="line2d_20">
     <path d="M 57.082539 22.2 
L 69.082539 22.2 
L 81.082539 22.2 
" style="fill: none; stroke-dasharray: 5.92,2.56; stroke-dashoffset: 0; stroke: #555555; stroke-width: 1.6"/>
     <g>
      <use xlink:href="#m035da14af1" x="69.082539" y="22.2" style="fill: #555555; stroke: #555555"/>
     </g>
    </g>
    <g id="text_16">
     <text style="font-size: 12px; font-family: 'Times New Roman'; text-anchor: start" x="90.682539" y="26.4" transform="rotate(-0 90.682539 26.4)">FP32 - original</text>
    </g>
    <g id="line2d_21">
     <path d="M 57.082539 39.189844 
L 69.082539 39.189844 
L 81.082539 39.189844 
" style="fill: none; stroke-dasharray: 5.92,2.56; stroke-dashoffset: 0; stroke: #e07b39; stroke-width: 1.6"/>
     <g>
      <use xlink:href="#me3021dfaca" x="69.082539" y="39.189844" style="fill: #e07b39; stroke: #e07b39; stroke-linejoin: miter"/>
     </g>
    </g>
    <g id="text_17">
     <text style="font-size: 12px; font-family: 'Times New Roman'; text-anchor: start" x="90.682539" y="43.389844" transform="rotate(-0 90.682539 43.389844)">FP16 - original</text>
    </g>
    <g id="line2d_22">
     <path d="M 57.082539 56.179687 
L 69.082539 56.179687 
L 81.082539 56.179687 
" style="fill: none; stroke-dasharray: 5.92,2.56; stroke-dashoffset: 0; stroke: #4a9c6d; stroke-width: 1.6"/>
     <g>
      <use xlink:href="#m637e83bb4a" x="69.082539" y="56.179687" style="fill: #4a9c6d; stroke: #4a9c6d; stroke-linejoin: miter"/>
     </g>
    </g>
    <g id="text_18">
     <text style="font-size: 12px; font-family: 'Times New Roman'; text-anchor: start" x="90.682539" y="60.379687" transform="rotate(-0 90.682539 60.379687)">INT8-mix - original</text>
    </g>
    <g id="line2d_23">
     <path d="M 210.656289 22.2 
L 222.656289 22.2 
L 234.656289 22.2 
" style="fill: none; stroke: #555555; stroke-width: 1.8; stroke-linecap: square"/>
     <g>
      <use xlink:href="#m41bab15d1e" x="222.656289" y="22.2" style="fill: #ffffff; stroke: #555555"/>
     </g>
    </g>
    <g id="text_19">
     <text style="font-size: 12px; font-family: 'Times New Roman'; text-anchor: start" x="244.256289" y="26.4" transform="rotate(-0 244.256289 26.4)">FP32 - new</text>
    </g>
    <g id="line2d_24">
     <path d="M 210.656289 39.189844 
L 222.656289 39.189844 
L 234.656289 39.189844 
" style="fill: none; stroke: #e07b39; stroke-width: 1.8; stroke-linecap: square"/>
     <g>
      <use xlink:href="#m6592f7c4ea" x="222.656289" y="39.189844" style="fill: #ffffff; stroke: #e07b39; stroke-linejoin: miter"/>
     </g>
    </g>
    <g id="text_20">
     <text style="font-size: 12px; font-family: 'Times New Roman'; text-anchor: start" x="244.256289" y="43.389844" transform="rotate(-0 244.256289 43.389844)">FP16 - new</text>
    </g>
    <g id="line2d_25">
     <path d="M 210.656289 56.179687 
L 222.656289 56.179687 
L 234.656289 56.179687 
" style="fill: none; stroke: #4a9c6d; stroke-width: 1.8; stroke-linecap: square"/>
     <g>
      <use xlink:href="#m00ee5aefe5" x="222.656289" y="56.179687" style="fill: #ffffff; stroke: #4a9c6d; stroke-linejoin: miter"/>
     </g>
    </g>
    <g id="text_21">
     <text style="font-size: 12px; font-family: 'Times New Roman'; text-anchor: start" x="244.256289" y="60.379687" transform="rotate(-0 244.256289 60.379687)">INT8-mix - new</text>
    </g>
   </g>
  </g>
 </g>
 <defs>
  <clipPath id="pac55100665">
   <rect x="46.282539" y="7.2" width="730.6" height="389.740664"/>
  </clipPath>
 </defs>
</svg>
